<svg width="95" height="138" viewBox="0 0 95 138" fill="none" xmlns="http://www.w3.org/2000/svg">
<path fill-rule="evenodd" clip-rule="evenodd" d="M71.4995 68.0021C71.3667 68.802 71.0433 69.5633 70.5535 70.2289C70.0636 70.8946 69.42 71.4473 68.6709 71.8457C67.1623 72.7623 65.8424 73.2206 64.5067 73.6788C61.6624 74.6028 58.6688 75.5267 55.5024 76.5985C52.1632 77.6703 49.1696 78.742 46.4982 79.5182C43.1668 80.5899 40.0004 81.5139 36.9912 82.5856C34.7271 83.4971 32.6005 84.685 30.6662 86.1188C28.8672 87.6521 27.2972 89.4075 25.9991 91.3372C24.6634 93.4808 23.8227 96.2452 23.8227 99.4679C23.8227 105.921 25.4884 110.829 28.8276 113.896C32.159 117.126 38.3347 118.656 47.4882 118.656C56.8224 118.656 63.1552 116.971 66.5024 113.593C69.8259 110.215 71.4916 105.462 71.4916 99.3275V68.0021H71.4995ZM47.4961 0C63.8388 0 75.8366 2.91966 83.4972 8.9068C91.1657 14.7461 95 22.2559 95 31.1553V106.992C95 110.06 94.34 113.438 93.1772 117.119C91.9986 120.815 89.6729 124.185 86.0036 127.245C82.5072 130.328 77.6751 132.937 71.5073 134.933C65.3395 136.928 57.341 138 47.5039 138C37.6826 138 29.6683 136.928 23.5084 134.933C17.3484 132.937 12.5085 130.328 9.01207 127.245C5.75948 124.488 3.2955 121.006 1.84641 117.119C0.667852 113.445 0 110.067 0 107V94.8778C0 88.425 1.8307 82.4378 5.49996 77.212C9.16922 71.8457 14.3313 68.1648 21.002 65.8586C24.3334 64.7868 28.1676 63.715 32.4969 62.3328C36.834 60.9432 40.8254 59.561 44.8325 58.3414C48.8396 57.107 52.336 55.8726 55.3296 54.7935C57.1361 54.1135 58.9709 53.502 60.8295 52.9604L63.8309 51.5781C65.0095 50.9646 66.1645 50.0407 67.3352 48.8137C68.4981 47.5941 69.4959 46.2119 70.3366 44.6745C71.2249 43.0096 71.6825 41.1709 71.6723 39.3082V34.3928C71.6846 32.5913 71.2826 30.8086 70.4938 29.167C69.8338 27.3191 68.4981 25.6338 66.6674 24.1038C64.8367 22.5664 62.3302 21.3394 59.3367 20.408C56.3353 19.4989 52.3439 19.0332 47.8339 19.0332C38.4997 19.0332 32.3319 20.7333 29.0005 24.2516C26.1719 27.3265 24.5062 31.1627 24.1762 35.4572C24.1762 36.3811 23.3434 36.9946 22.3377 36.9946L2.01141 37.3051C1.52858 37.3071 1.06446 37.1295 0.720111 36.8111C0.375762 36.4927 0.179068 36.0592 0.172856 35.605V31.1701C0.172856 26.8608 1.01356 22.8694 2.84426 19.0332C4.68282 15.1896 7.51923 11.9743 11.3456 9.20246C15.1799 6.44542 20.1848 4.14665 26.1798 2.60921C32.0176 0.761328 39.1833 0 47.5118 0H47.4961Z" fill="#E9ECF8"/>
</svg>
